<svg xmlns:xlink="http://www.w3.org/1999/xlink" viewBox="0 0 32 32" xmlns="http://www.w3.org/2000/svg" style="display: block; height: auto; width: auto; fill: var(--f-k-smk-x);" aria-hidden="true" role="presentation" focusable="false" width="32"  height="32" ><path d="m8 2v.5c0 1.86856208 1.46427888 3.39512636 3.3079649 3.49482113l.1920351.00517887h.5v2h-.5c-1.3248708 0-2.54033051-.46844738-3.48978101-1.24874412.1225263 1.751997 1.53714518 3.1483632 3.29774591 3.24356525l.1920351.00517887h.5v2h-.5c-1.3295326 0-2.54888271-.4717498-3.49979347-1.2569925l-.00023812 3.2815364c3.18604319.1566906 6.24772929 1.0606122 9.00016069 2.6251028l-.0009488-3.5696467-.8744853.7008688-1.24939-1.5617376 2.1238753-1.6991312.0008197-3.52h2l-.0008197 1.92 3.3761247-2.70086881c.0612924-.04903398.1269148-.08983889.1954138-.12241471l.1362689-.05292495.0499562-.01388125.0570098-.01250338.0759515-.01134742.0514864-.00434881.1207606.00021626.0781446.00793297.0530877.00896302.1024292.0258318.100431.03708237.0491002.02279618.0761645.04215786.1031856.07244006 7.5 6.00000001-1.24939 1.5617376-.8761247-.7018688.000715 3.5512655c.3362384.0865538.6699494.1818626 1.0008677.285827l-.0002209 2.1080299c-1.9083404-.6746184-3.929516-1.0241224-6.0005421-1.0241224-4.685606 0-9.0803435 1.7986742-12.3905405 4.9430174 1.20212.279682 2.369344.6262884 3.5548995 1.0448932l.8974285.3278862 1.0336844.4021937.8178192.3376729 1.4518528.6239856 2.0381609.8945808c.2801441.1234704.5506986.241028.8123586.3529286l.7589916.3189865.3607865.1472445.6867613.2709501c.2215321.0852137.4359075.1654097.6438215.2408437l.6050525.2122715c1.565489.5293248 2.7619323.7702448 3.9452469.8536824l.4438228.0241629c.1030738.0040089.2360717.0027382.3398535.0047v2c-.074513.0020081-.1238653.0027266-.1480569.0021557l-.4830729-.0180366c-1.8467857-.0958076-3.6640144-.5084987-6.4132506-1.5902865l-.7389663-.2976151-.7850436-.3293606-.8349145-.3624957-2.5874241-1.1328471-1.2269867-.5206736-.5821103-.2369005-.7950924-.3083074-.4899169-.181891c-3.741833-1.3712812-7.20312319-1.9797186-12.33767404-2.0214293l-.57749076-.0023123v-2c2.78548299 0 5.12117417.1538365 7.26221515.4877965l-.00456112-.003257c1.72317007-1.878635 3.76810307-3.3962436 6.02395757-4.4896481-2.5523904-1.3041147-5.36816734-1.9948914-8.2816116-1.9948914-1.70843275 0-3.38552583.2371491-5.00032508.6996482v-2.0720532c1.30374305-.3335674 2.64139802-.536237 3.99963292-.6030369l.00188031-3.2827026c-.89813907.7421593-2.035951 1.20457-3.2799811 1.2537773l-.22120705.0043672h-.5v-2h.5c1.84912985 0 3.36333817-1.43398153 3.49124906-3.25056866-.89659546.73798919-2.03060074 1.19717563-3.27004201 1.24620145l-.22120705.00436721h-.5v-2h.5c1.86856208 0 3.39512636-1.46427888 3.49482113-3.30796493l.00517887-.19203507v-.5zm15 6.28-4 3.2-.0006568 5.1510382c.9780367-.2517117 1.9804559-.4303513 3.0001806-.5318851l.0004762-3.0991531h2v3c1.0123062 0 2.0144057.075318 3.0001178.223642l-.0001178-4.744642z" fill="#222222"></path></svg>