<svg xmlns:xlink="http://www.w3.org/1999/xlink" viewBox="0 0 32 32" xmlns="http://www.w3.org/2000/svg" style="display: block; height: auto; width: auto; fill: var(--f-k-smk-x);" aria-hidden="true" role="presentation" focusable="false" width="32"  height="32" ><path d="m22 1v2h-5l.0007613 2.12621352c1.0266258.26445195 1.893676.92624783 2.4274136 1.81165055.6941752-.58545244 1.5918451-.93786407 2.5718251-.93786407 2.209139 0 4 1.790861 4 4 0 1.4547682-.7766108 2.7281493-1.9378641 3.4281749.5854525.6941752.9378641 1.5918451.9378641 2.5718251 0 1.4547682-.7766108 2.7281493-1.9378641 3.4281749.5854525.6941752.9378641 1.5918451.9378641 2.5718251 0 2.209139-1.790861 4-4 4l-.1269911-.0037752c.0828928.3207563.1269911.6571159.1269911 1.0037752 0 2.209139-1.790861 4-4 4s-4-1.790861-4-4c0-.3466593.0440983-.6830189.1269911-1.0037752l-.1269911.0037752c-2.209139 0-4-1.790861-4-4 0-.97998.35241163-1.8776499.93741714-2.5731919-1.16080636-.6986588-1.93741714-1.9720399-1.93741714-3.4268081 0-.97998.35241163-1.8776499.93741714-2.5731919-1.16080636-.6986588-1.93741714-1.9720399-1.93741714-3.4268081 0-2.209139 1.790861-4 4-4 .97998 0 1.8776499.35241163 2.5731919.93741714.5325449-.88524463 1.3999868-1.54718345 2.4270516-1.81146231l-.0002435-2.12595483h-5v-2zm-6 24c-1.1045695 0-2 .8954305-2 2s.8954305 2 2 2 2-.8954305 2-2-.8954305-2-2-2zm4-5-.1246652.0052691c.0813916.3180328.1246652.6513283.1246652.9947309 0 1.0412907-.397887 1.9896499-1.0499185 2.701335.3084144.192385.6699794.298665 1.0499185.298665 1.1045695 0 2-.8954305 2-2s-.8954305-2-2-2zm-8 0c-1.1045695 0-2 .8954305-2 2s.8954305 2 2 2c.380037 0 .7417552-.1062744 1.0517016-.2981691-.6538146-.712181-1.0517016-1.6605402-1.0517016-2.7018309 0-.3434026.0432736-.6766981.1246652-.9947309-.0407566-.0039822-.0826002-.0052691-.1246652-.0052691zm4-1c-1.1045695 0-2 .8954305-2 2s.8954305 2 2 2 2-.8954305 2-2-.8954305-2-2-2zm-5-5c-1.1045695 0-2 .8954305-2 2s.8954305 2 2 2c.6621737 0 1.2641161-.3246487 1.631903-.8427402-.4004907-.623072-.631903-1.3631413-.631903-2.1572598 0-.2365808.0205388-.4683645.0599306-.6936653-.311122-.1985862-.6763599-.3063347-1.0599306-.3063347zm10 0c-.3837448 0-.7491218.1078981-1.0624944.3049493.0419556.2266862.0624944.4584699.0624944.6950507 0 .7941185-.2314123 1.5341878-.6304803 2.1564512.3665209.5192308.9685847.8435488 1.6304803.8435488 1.1045695 0 2-.8954305 2-2s-.8954305-2-2-2zm-5-1c-1.1045695 0-2 .8954305-2 2s.8954305 2 2 2 2-.8954305 2-2-.8954305-2-2-2zm6-5c-1.1045695 0-2 .8954305-2 2s.8954305 2 2 2 2-.8954305 2-2-.8954305-2-2-2zm-12 0c-1.1045695 0-2 .8954305-2 2s.8954305 2 2 2 2-.8954305 2-2-.8954305-2-2-2zm6-1c-1.1045695 0-2 .8954305-2 2s.8954305 2 2 2 2-.8954305 2-2-.8954305-2-2-2z" fill="#222222"></path></svg>